<svg xmlns="http://www.w3.org/2000/svg" width="297.789" height="291.363" viewBox="0 0 297.789 291.363">
  <g id="Group_4" data-name="Group 4" transform="translate(-48.5 122)">
    <rect id="Rectangle_11" data-name="Rectangle 11" width="297.789" height="291.363" transform="translate(48.5 -122)" fill="rgba(162,98,98,0)"/>
    <g id="Group_5" data-name="Group 5" transform="translate(69.991 -100.509)">
      <circle id="Ellipse_3846" data-name="Ellipse 3846" cx="5.196" cy="5.196" r="5.196" fill="rgba(0,0,0,0.06)"/>
      <circle id="Ellipse_3847" data-name="Ellipse 3847" cx="5.196" cy="5.196" r="5.196" transform="translate(0 74.607)" fill="rgba(0,0,0,0.06)"/>
      <circle id="Ellipse_3848" data-name="Ellipse 3848" cx="5.196" cy="5.196" r="5.196" transform="translate(0 149.214)" fill="rgba(0,0,0,0.06)"/>
      <circle id="Ellipse_3849" data-name="Ellipse 3849" cx="5.196" cy="5.196" r="5.196" transform="translate(0 223.822)" fill="rgba(0,0,0,0.06)"/>
      <circle id="Ellipse_3850" data-name="Ellipse 3850" cx="5.196" cy="5.196" r="5.196" transform="translate(76.749)" fill="rgba(0,0,0,0.06)"/>
      <circle id="Ellipse_3851" data-name="Ellipse 3851" cx="5.196" cy="5.196" r="5.196" transform="translate(76.749 74.607)" fill="rgba(0,0,0,0.06)"/>
      <circle id="Ellipse_3852" data-name="Ellipse 3852" cx="5.196" cy="5.196" r="5.196" transform="translate(76.749 149.214)" fill="rgba(0,0,0,0.06)"/>
      <circle id="Ellipse_3853" data-name="Ellipse 3853" cx="5.196" cy="5.196" r="5.196" transform="translate(76.749 223.822)" fill="rgba(0,0,0,0.06)"/>
      <circle id="Ellipse_3854" data-name="Ellipse 3854" cx="5.196" cy="5.196" r="5.196" transform="translate(153.498)" fill="rgba(0,0,0,0.06)"/>
      <circle id="Ellipse_3855" data-name="Ellipse 3855" cx="5.196" cy="5.196" r="5.196" transform="translate(153.498 74.607)" fill="rgba(0,0,0,0.06)"/>
      <circle id="Ellipse_3856" data-name="Ellipse 3856" cx="5.196" cy="5.196" r="5.196" transform="translate(153.498 149.214)" fill="rgba(0,0,0,0.06)"/>
      <circle id="Ellipse_3857" data-name="Ellipse 3857" cx="5.196" cy="5.196" r="5.196" transform="translate(153.498 223.822)" fill="rgba(0,0,0,0.06)"/>
      <circle id="Ellipse_3858" data-name="Ellipse 3858" cx="5.196" cy="5.196" r="5.196" transform="translate(230.247)" fill="rgba(0,0,0,0.06)"/>
      <circle id="Ellipse_3859" data-name="Ellipse 3859" cx="5.196" cy="5.196" r="5.196" transform="translate(230.247 74.607)" fill="rgba(0,0,0,0.06)"/>
      <circle id="Ellipse_3860" data-name="Ellipse 3860" cx="5.196" cy="5.196" r="5.196" transform="translate(230.247 149.214)" fill="rgba(0,0,0,0.06)"/>
      <circle id="Ellipse_3861" data-name="Ellipse 3861" cx="5.196" cy="5.196" r="5.196" transform="translate(230.247 223.822)" fill="rgba(0,0,0,0.06)"/>
    </g>
  </g>
</svg>
